<svg xmlns="http://www.w3.org/2000/svg" viewBox="0 0 1320 968" font-family="ui-monospace,SFMono-Regular,JetBrains Mono,Menlo,Consolas,monospace">
<defs>
<marker id="m94A1AE" viewBox="0 0 10 10" refX="7" refY="5" markerWidth="6.5" markerHeight="6.5" orient="auto-start-reverse"><path d="M0 1 L9 5 L0 9 z" fill="#94A1AE"/></marker>
<marker id="mE8B84B" viewBox="0 0 10 10" refX="7" refY="5" markerWidth="6.5" markerHeight="6.5" orient="auto-start-reverse"><path d="M0 1 L9 5 L0 9 z" fill="#E8B84B"/></marker>
<marker id="m3FB6C9" viewBox="0 0 10 10" refX="7" refY="5" markerWidth="6.5" markerHeight="6.5" orient="auto-start-reverse"><path d="M0 1 L9 5 L0 9 z" fill="#3FB6C9"/></marker>
</defs>
<rect x="48" y="28" width="330" height="36" rx="6" fill="#0E141B" stroke="#39465A" stroke-width="1"/>
<text x="66" y="51" fill="#E3EAF2" font-size="15.5" font-weight="700">secure-homelab</text>
<text x="206" y="51" fill="#7E8C9A" font-size="11.5">// architecture</text>
<rect x="392" y="28" width="300" height="36" rx="6" fill="#0E141B" stroke="#39465A" stroke-width="1"/>
<g transform="translate(408.0,39.0) scale(0.6667)" fill="#647A93"><path d="M13.983 11.078h2.119a.186.186 0 00.186-.185V9.006a.186.186 0 00-.186-.186h-2.119a.185.185 0 00-.185.185v1.888c0 .102.083.185.185.185m-2.954-5.43h2.118a.186.186 0 00.186-.186V3.574a.186.186 0 00-.186-.185h-2.118a.185.185 0 00-.185.185v1.888c0 .102.082.185.185.185m0 2.716h2.118a.187.187 0 00.186-.186V6.29a.186.186 0 00-.186-.185h-2.118a.185.185 0 00-.185.185v1.887c0 .102.082.185.185.186m-2.93 0h2.12a.186.186 0 00.184-.186V6.29a.185.185 0 00-.185-.185H8.1a.185.185 0 00-.185.185v1.887c0 .102.083.185.185.186m-2.964 0h2.119a.186.186 0 00.185-.186V6.29a.185.185 0 00-.185-.185H5.136a.186.186 0 00-.186.185v1.887c0 .102.084.185.186.186m5.893 2.715h2.118a.186.186 0 00.186-.185V9.006a.186.186 0 00-.186-.186h-2.118a.185.185 0 00-.185.185v1.888c0 .102.082.185.185.185m-2.93 0h2.12a.185.185 0 00.184-.185V9.006a.185.185 0 00-.184-.186h-2.12a.185.185 0 00-.184.185v1.888c0 .102.083.185.185.185m-2.964 0h2.119a.185.185 0 00.185-.185V9.006a.185.185 0 00-.184-.186h-2.12a.186.186 0 00-.186.186v1.887c0 .102.084.185.186.185m-2.92 0h2.12a.185.185 0 00.184-.185V9.006a.185.185 0 00-.184-.186h-2.12a.185.185 0 00-.184.185v1.888c0 .102.082.185.185.185M23.763 9.89c-.065-.051-.672-.51-1.954-.51-.338.001-.676.03-1.01.087-.248-1.7-1.653-2.53-1.716-2.566l-.344-.199-.226.327c-.284.438-.49.922-.612 1.43-.23.97-.09 1.882.403 2.661-.595.332-1.55.413-1.744.42H.751a.751.751 0 00-.75.748 11.376 11.376 0 00.692 4.062c.545 1.428 1.355 2.48 2.41 3.124 1.18.723 3.1 1.137 5.275 1.137.983.003 1.963-.086 2.93-.266a12.248 12.248 0 003.823-1.389c.98-.567 1.86-1.288 2.61-2.136 1.252-1.418 1.998-2.997 2.553-4.4h.221c1.372 0 2.215-.549 2.68-1.009.309-.293.55-.65.707-1.046l.098-.288Z"/></g>
<text x="436" y="51" fill="#7E8C9A" font-size="11.5">freebox-ultra · docker · arm64</text>
<rect x="48" y="92" width="250" height="68" rx="10" fill="#0E141B" stroke="#39465A" stroke-width="1.2"/>
<rect x="64" y="106.0" width="40" height="40" rx="9" fill="#94A1AE" fill-opacity="0.14" stroke="#94A1AE" stroke-opacity="0.45" stroke-width="1"/>
<g transform="translate(73.0,115.0) scale(0.9167)" fill="none" stroke="#94A1AE" stroke-width="2" stroke-linecap="round" stroke-linejoin="round"><!-- @license lucide-static v1.21.0 - ISC -->

  <circle cx="12" cy="12" r="10" />
  <path d="M12 2a14.5 14.5 0 0 0 0 20 14.5 14.5 0 0 0 0-20" />
  <path d="M2 12h20" /></g>
<text x="118" y="123" fill="#E3EAF2" font-size="14.5" font-weight="600">Internet</text>
<text x="118" y="142" fill="#7E8C9A" font-size="11">trafic public · attaquants</text>
<rect x="720" y="92" width="250" height="68" rx="10" fill="#0E141B" stroke="#39465A" stroke-width="1.2"/>
<rect x="736" y="106.0" width="40" height="40" rx="9" fill="#7C84F2" fill-opacity="0.14" stroke="#7C84F2" stroke-opacity="0.45" stroke-width="1"/>
<g transform="translate(745.0,115.0) scale(0.9167)" fill="#7C84F2"><path d="M20.317 4.3698a19.7913 19.7913 0 00-4.8851-1.5152.0741.0741 0 00-.0785.0371c-.211.3753-.4447.8648-.6083 1.2495-1.8447-.2762-3.68-.2762-5.4868 0-.1636-.3933-.4058-.8742-.6177-1.2495a.077.077 0 00-.0785-.037 19.7363 19.7363 0 00-4.8852 1.515.0699.0699 0 00-.0321.0277C.5334 9.0458-.319 13.5799.0992 18.0578a.0824.0824 0 00.0312.0561c2.0528 1.5076 4.0413 2.4228 5.9929 3.0294a.0777.0777 0 00.0842-.0276c.4616-.6304.8731-1.2952 1.226-1.9942a.076.076 0 00-.0416-.1057c-.6528-.2476-1.2743-.5495-1.8722-.8923a.077.077 0 01-.0076-.1277c.1258-.0943.2517-.1923.3718-.2914a.0743.0743 0 01.0776-.0105c3.9278 1.7933 8.18 1.7933 12.0614 0a.0739.0739 0 01.0785.0095c.1202.099.246.1981.3728.2924a.077.077 0 01-.0066.1276 12.2986 12.2986 0 01-1.873.8914.0766.0766 0 00-.0407.1067c.3604.698.7719 1.3628 1.225 1.9932a.076.076 0 00.0842.0286c1.961-.6067 3.9495-1.5219 6.0023-3.0294a.077.077 0 00.0313-.0552c.5004-5.177-.8382-9.6739-3.5485-13.6604a.061.061 0 00-.0312-.0286zM8.02 15.3312c-1.1825 0-2.1569-1.0857-2.1569-2.419 0-1.3332.9555-2.4189 2.157-2.4189 1.2108 0 2.1757 1.0952 2.1568 2.419 0 1.3332-.9555 2.4189-2.1569 2.4189zm7.9748 0c-1.1825 0-2.1569-1.0857-2.1569-2.419 0-1.3332.9554-2.4189 2.1569-2.4189 1.2108 0 2.1757 1.0952 2.1568 2.419 0 1.3332-.946 2.4189-2.1568 2.4189Z"/></g>
<text x="790" y="123" fill="#E3EAF2" font-size="14.5" font-weight="600">Discord</text>
<text x="790" y="142" fill="#7E8C9A" font-size="11">webhooks · alerting</text>
<rect x="998" y="92" width="250" height="68" rx="10" fill="#0E141B" stroke="#39465A" stroke-width="1.2"/>
<rect x="1014" y="106.0" width="40" height="40" rx="9" fill="#647A93" fill-opacity="0.14" stroke="#647A93" stroke-opacity="0.45" stroke-width="1"/>
<g transform="translate(1023.0,115.0) scale(0.9167)" fill="none" stroke="#647A93" stroke-width="2" stroke-linecap="round" stroke-linejoin="round"><!-- @license lucide-static v1.21.0 - ISC -->

  <path d="M17.5 19H9a7 7 0 1 1 6.71-9h1.79a4.5 4.5 0 1 1 0 9Z" /></g>
<text x="1068" y="123" fill="#E3EAF2" font-size="14.5" font-weight="600">Cloud distant</text>
<text x="1068" y="142" fill="#7E8C9A" font-size="11">s3 · backblaze b2</text>
<path d="M66 200 L48 200 L48 218 M1230 200 L1248 200 L1248 218 M48 874 L48 892 L66 892 M1248 874 L1248 892 L1230 892" fill="none" stroke="#647A93" stroke-width="1.4"/>
<rect x="48" y="200" width="1200" height="692" rx="3" fill="none" stroke="#39465A" stroke-width="1" stroke-opacity="0.4"/>
<rect x="72" y="260" width="1176" height="46" rx="10" fill="#E8B84B" fill-opacity="0.08" stroke="#E8B84B" stroke-width="1.3"/>
<g transform="translate(90.0,272.0) scale(0.9167)" fill="none" stroke="#E8B84B" stroke-width="2" stroke-linecap="round" stroke-linejoin="round"><!-- @license lucide-static v1.21.0 - ISC -->

  <path d="M20 13c0 5-3.5 7.5-7.66 8.95a1 1 0 0 1-.67-.01C7.5 20.5 4 18 4 13V6a1 1 0 0 1 1-1c2 0 4.5-1.2 6.24-2.72a1.17 1.17 0 0 1 1.52 0C14.51 3.81 17 5 19 5a1 1 0 0 1 1 1z" />
  <path d="M12 8v4" />
  <path d="M12 16h.01" /></g>
<text x="124" y="289" fill="#E8B84B" font-size="13" font-weight="700" letter-spacing="0.4">Pare-feu noyau · nftables / ipset</text>
<rect x="72" y="340" width="1176" height="92" rx="12" fill="none" stroke="#39465A" stroke-width="1" stroke-opacity="0.55"/>
<rect x="88" y="329" width="112" height="22" rx="5" fill="#0E141B" stroke="#39465A" stroke-width="1"/>
<circle cx="102" cy="340" r="3" fill="#94A1AE"/>
<text x="114" y="344" fill="#7E8C9A" font-size="11" font-weight="600" letter-spacing="0.5">frontend_net</text>
<rect x="72" y="492" width="1176" height="160" rx="12" fill="none" stroke="#39465A" stroke-width="1" stroke-opacity="0.55"/>
<rect x="88" y="481" width="105" height="22" rx="5" fill="#0E141B" stroke="#39465A" stroke-width="1"/>
<circle cx="102" cy="492" r="3" fill="#E8B84B"/>
<text x="114" y="496" fill="#7E8C9A" font-size="11" font-weight="600" letter-spacing="0.5">backend_net</text>
<rect x="72" y="692" width="1176" height="160" rx="12" fill="none" stroke="#39465A" stroke-width="1" stroke-opacity="0.55"/>
<rect x="88" y="681" width="127" height="22" rx="5" fill="#0E141B" stroke="#39465A" stroke-width="1"/>
<circle cx="102" cy="692" r="3" fill="#3FB6C9"/>
<text x="114" y="696" fill="#7E8C9A" font-size="11" font-weight="600" letter-spacing="0.5">monitoring_net</text>
<rect x="96" y="364" width="380" height="56" rx="10" fill="#0E141B" stroke="#39465A" stroke-width="1.2"/>
<rect x="112" y="372.0" width="40" height="40" rx="9" fill="#7FB2F2" fill-opacity="0.14" stroke="#7FB2F2" stroke-opacity="0.45" stroke-width="1"/>
<g transform="translate(121.0,381.0) scale(0.9167)" fill="#7FB2F2"><path d="M12.008 0A822.933 822.933 0 0 0 1.59 6.043V18c3.578 2.087 7.238 4.274 10.418 6 3.928-2.267 6.71-3.868 10.402-6v-3.043l-1.045.6v1.8l-1.545.9-1.56-.9v-1.8l1.56-.885v-.002l.268.156a8.15 8.15 0 0 0 .404-1.754v-.002a8.72 8.72 0 0 0 .072-1.072 9.885 9.885 0 0 0-.072-1.127 8.873 8.873 0 0 0-.515-1.97v-.003a8.137 8.137 0 0 0-1.301-2.242 7.113 7.113 0 0 0-.615-.699 10.271 10.271 0 0 0-.846-.728 7.91 7.91 0 0 0-1.902-1.116 4.776 4.776 0 0 0-.586-.213v-.957c.41.118.812.265 1.2.442a9.2 9.2 0 0 1 1.618.943 9.4 9.4 0 0 1 1.158.986c.273.277.53.568.774.872.532.686.97 1.44 1.302 2.244h-.002a9.45 9.45 0 0 1 .645 2.613c.04.317.06.637.056.957 0 .314-.014.614-.043.914-.082.838-.37 1.786-.542 2.373l.472.27 1.045-.602V8.986l-1.303-.742v-.002l1.303.744V6c-3.56-2.057-7.212-4.154-10.402-6Zm8.08 14.826c-.02.052.003.002.004.002zM12.035 1.213l1.56.9v1.801l-1.56.885-1.545-.885h-.002v-.328a8.458 8.458 0 0 0-1.744.516 8.178 8.178 0 0 0-1.889 1.07l-.001.002a6.77 6.77 0 0 0-.9.783 9.171 9.171 0 0 0-.616.672 8.84 8.84 0 0 0-1.3 2.228l.228.127 1.287-.742 1.203.686c1.929-1.112 3.397-1.961 5.252-3.014l.027.014c1.926 1.114 3.398 1.955 5.238 3.029.028 1.997.014 4.064.014 6.086-1.874 1.084-3.753 2.16-5.28 3.043a859.719 859.719 0 0 1-5.294-3.043V8.957l.043-.027-1.203-.688-1.287.744-.229-.129h-.002a8.376 8.376 0 0 0-.53 2.057c-.044.36-.068.723-.07 1.086.002.344.026.687.07 1.027v.002c.015.215.06.429.102.643l-.83.484a7.017 7.017 0 0 1-.2-1.199A7.065 7.065 0 0 1 2.52 12c0-.329.028-.672.056-1a9.77 9.77 0 0 1 .658-2.6 9.438 9.438 0 0 1 1.303-2.244c.243-.3.5-.57.758-.842.37-.372.773-.71 1.203-1.013-1.215-.084-1.215-.084 0-.002a9.394 9.394 0 0 1 1.645-.942 9.866 9.866 0 0 1 2.347-.7l-.002-.542-1.043-.601 1.045.6zm0 .773-.887.514v1.027l.887.516.887-.516V2.5Zm-.03 6.928c-.935.532-1.888 1.084-2.689 1.543v3.086c.933.535 1.892 1.095 2.692 1.557.926-.565 1.865-1.093 2.676-1.557v-3.086c-.945-.542-1.857-1.074-2.678-1.543Zm-7.74 5.758 1.546.885v1.8l-.329.186c.146.177.303.344.471.5.277.288.58.55.902.785a8.07 8.07 0 0 0 1.83 1.059h.002a8.14 8.14 0 0 0 2.061.57c.417.058.837.087 1.258.086a8.37 8.37 0 0 0 1.332-.1 8.64 8.64 0 0 0 2.017-.572 8.076 8.076 0 0 0 1.86-1.1c.172-.114.315-.242.472-.37l.83.47a9.79 9.79 0 0 1-.945.787l.946.541 1.302-.756-1.302.758-.946-.543c-.516.37-1.067.69-1.644.955l-.002.002a9.502 9.502 0 0 1-2.588.756c-.441.057-.885.086-1.33.086a12.048 12.048 0 0 1-1.26-.072v.002a9.38 9.38 0 0 1-2.605-.744 9.044 9.044 0 0 1-1.688-.971 9.625 9.625 0 0 1-1.775-1.658h-.002l-.412.244-1.56-.9v-1.801zm0 .756-.886.515v1.028l.887.515.886-.515v-1.028zm15.555 0-.902.515v1.028l.902.515.887-.515v-1.028z"/></g>
<text x="166" y="389" fill="#E3EAF2" font-size="14.5" font-weight="600">Nginx Proxy Manager</text>
<text x="166" y="408" fill="#7E8C9A" font-size="11">reverse proxy · ssl</text>
<text x="460" y="388" fill="#7FB2F2" font-size="11" text-anchor="end" font-weight="600">80/443/81</text>
<rect x="72" y="528" width="216" height="96" rx="10" fill="#0E141B" stroke="#39465A" stroke-width="1.2"/>
<rect x="88" y="556.0" width="40" height="40" rx="9" fill="#C68A5E" fill-opacity="0.14" stroke="#C68A5E" stroke-opacity="0.45" stroke-width="1"/>
<g transform="translate(97.0,565.0) scale(0.9167)" fill="#C68A5E"><path d="M23.157 4.412c-.676.284-.79.31-1.673.372-.65.045-.757.057-1.212.209-.75.246-1.395.75-2.02 1.59-.296.398-1.249 1.913-1.249 1.988 0 .057-.65.998-.915 1.32-.574.713-1.08 1.079-2.14 1.59-.77.36-1.224.524-4.102 1.477-1.073.353-2.133.738-2.367.864-.852.449-1.515 1.036-2.203 1.938-1.003 1.32-.972 1.313-3.042.947a12.264 12.264 0 00-.675-.063c-.644-.05-1.023.044-1.332.334L0 17.193l.177.088c.094.05.353.234.561.398.215.17.461.347.55.391.088.044.17.088.183.101.012.013-.089.17-.228.353-.435.581-.593.871-.574 1.048.019.164.032.17.43.17.517-.006.826-.056 1.261-.208.65-.233 2.058-.94 2.784-1.4.776-.5 1.717-.998 1.956-1.042.082-.02.354-.07.594-.114.58-.107 1.464-.095 2.587.05.108.013.373.045.6.064.227.025.43.057.454.076.026.012.474.037.998.056.934.026 1.104.007 1.3-.189.126-.133.385-.631.498-.985.209-.643.417-.921.366-.492-.113.966-.322 1.692-.713 2.411-.259.499-.663 1.092-.934 1.395-.322.347-.315.36.088.315.619-.063 1.471-.397 2.096-.82.827-.562 1.647-1.691 2.19-3.03.107-.27.22-.22.183.083-.013.094-.038.315-.057.498l-.031.328.353-.202c.833-.48 1.414-1.262 2.127-2.884.227-.518.877-2.922 1.073-3.976a9.64 9.64 0 01.271-1.042c.127-.429.196-.555.48-.858.183-.19.625-.555.978-.808.72-.505.953-.75 1.187-1.205.208-.417.284-1.13.132-1.357-.132-.202-.284-.196-.763.006Z"/></g>
<text x="142" y="573" fill="#E3EAF2" font-size="14.5" font-weight="600">MariaDB</text>
<text x="142" y="592" fill="#7E8C9A" font-size="11">base npm</text>
<rect x="312" y="528" width="216" height="96" rx="10" fill="#0E141B" stroke="#39465A" stroke-width="1.2"/>
<rect x="328" y="556.0" width="40" height="40" rx="9" fill="#E8B84B" fill-opacity="0.14" stroke="#E8B84B" stroke-opacity="0.45" stroke-width="1"/>
<g transform="translate(337.0,565.0) scale(0.9167)" fill="none" stroke="#E8B84B" stroke-width="2" stroke-linecap="round" stroke-linejoin="round"><!-- @license lucide-static v1.21.0 - ISC -->

  <path d="M20 13c0 5-3.5 7.5-7.66 8.95a1 1 0 0 1-.67-.01C7.5 20.5 4 18 4 13V6a1 1 0 0 1 1-1c2 0 4.5-1.2 6.24-2.72a1.17 1.17 0 0 1 1.52 0C14.51 3.81 17 5 19 5a1 1 0 0 1 1 1z" />
  <path d="m9 12 2 2 4-4" /></g>
<text x="382" y="573" fill="#E3EAF2" font-size="14.5" font-weight="600">CrowdSec</text>
<text x="382" y="592" fill="#7E8C9A" font-size="11">ips/ids · bouncer</text>
<rect x="552" y="528" width="216" height="96" rx="10" fill="#0E141B" stroke="#39465A" stroke-width="1.2"/>
<rect x="568" y="556.0" width="40" height="40" rx="9" fill="#E8B84B" fill-opacity="0.14" stroke="#E8B84B" stroke-opacity="0.45" stroke-width="1"/>
<g transform="translate(577.0,565.0) scale(0.9167)" fill="none" stroke="#E8B84B" stroke-width="2" stroke-linecap="round" stroke-linejoin="round"><!-- @license lucide-static v1.21.0 - ISC -->

  <path d="M12 20v-9" />
  <path d="M14 7a4 4 0 0 1 4 4v3a6 6 0 0 1-12 0v-3a4 4 0 0 1 4-4z" />
  <path d="M14.12 3.88 16 2" />
  <path d="M21 21a4 4 0 0 0-3.81-4" />
  <path d="M21 5a4 4 0 0 1-3.55 3.97" />
  <path d="M22 13h-4" />
  <path d="M3 21a4 4 0 0 1 3.81-4" />
  <path d="M3 5a4 4 0 0 0 3.55 3.97" />
  <path d="M6 13H2" />
  <path d="m8 2 1.88 1.88" />
  <path d="M9 7.13V6a3 3 0 1 1 6 0v1.13" /></g>
<text x="622" y="573" fill="#E3EAF2" font-size="14.5" font-weight="600">Cowrie</text>
<text x="622" y="592" fill="#7E8C9A" font-size="11">honeypot ssh</text>
<text x="752" y="552" fill="#E8B84B" font-size="11" text-anchor="end" font-weight="600">:2222</text>
<rect x="792" y="528" width="216" height="96" rx="10" fill="#0E141B" stroke="#39465A" stroke-width="1.2"/>
<rect x="808" y="556.0" width="40" height="40" rx="9" fill="#5C9FE0" fill-opacity="0.14" stroke="#5C9FE0" stroke-opacity="0.45" stroke-width="1"/>
<g transform="translate(817.0,565.0) scale(0.9167)" fill="#5C9FE0"><path d="M5.385 6.136c0 .807-.644 1.461-1.438 1.461s-1.438-.654-1.438-1.461.644-1.461 1.438-1.461 1.438.654 1.438 1.461zm-1.438 2.63c-.794 0-1.438.654-1.438 1.461s.644 1.461 1.438 1.461 1.438-.654 1.438-1.461-.644-1.461-1.438-1.461zm5.465-2.63c0 .807-.644 1.461-1.438 1.461s-1.438-.654-1.438-1.461.644-1.461 1.438-1.461 1.438.654 1.438 1.461zm-.35 0c0-.613-.488-1.111-1.088-1.111s-1.088.499-1.088 1.111.488 1.111 1.088 1.111 1.088-.498 1.088-1.111zm-1.088 5.592c.794 0 1.438-.654 1.438-1.461s-.644-1.461-1.438-1.461-1.438.654-1.438 1.461.643 1.461 1.438 1.461zm5.464-5.592c0 .807-.644 1.461-1.438 1.461s-1.438-.654-1.438-1.461.644-1.461 1.438-1.461 1.438.654 1.438 1.461zm-.35 0c0-.613-.488-1.111-1.088-1.111s-1.088.498-1.088 1.111S11.4 7.247 12 7.247s1.088-.498 1.088-1.111zm.35-4.675c0 .807-.644 1.461-1.438 1.461s-1.438-.654-1.438-1.461S11.206 0 12 0s1.438.654 1.438 1.461zm-.35 0C13.088.848 12.6.35 12 .35s-1.088.498-1.088 1.111S11.4 2.572 12 2.572s1.088-.498 1.088-1.111zm.35 8.806c0 .807-.644 1.461-1.438 1.461s-1.438-.654-1.438-1.461.644-1.461 1.438-1.461 1.438.654 1.438 1.461zm-.35 0c0-.613-.488-1.111-1.088-1.111s-1.088.498-1.088 1.111.488 1.111 1.088 1.111 1.088-.499 1.088-1.111zm4.376-4.131c0 .807-.644 1.461-1.438 1.461s-1.438-.654-1.438-1.461.644-1.461 1.438-1.461 1.438.654 1.438 1.461zm-.35 0c0-.613-.488-1.111-1.088-1.111s-1.088.498-1.088 1.111.488 1.111 1.088 1.111 1.088-.498 1.088-1.111zm2.939 1.461c.794 0 1.438-.654 1.438-1.461s-.644-1.461-1.438-1.461-1.438.654-1.438 1.461.644 1.461 1.438 1.461zm-4.027 1.209c-.794 0-1.438.654-1.438 1.461s.644 1.461 1.438 1.461 1.438-.654 1.438-1.461-.643-1.461-1.438-1.461zm4.027 0c-.794 0-1.438.654-1.438 1.461s.644 1.461 1.438 1.461 1.438-.654 1.438-1.461-.644-1.461-1.438-1.461zM3.947 12.857a1.45 1.45 0 0 0-1.438 1.461c0 .807.644 1.461 1.438 1.461s1.438-.654 1.438-1.461a1.45 1.45 0 0 0-1.438-1.461zm5.465 1.5c0 .807-.644 1.461-1.438 1.461s-1.438-.654-1.438-1.461.644-1.461 1.438-1.461 1.438.655 1.438 1.461zm-.35 0c0-.613-.488-1.111-1.088-1.111s-1.088.498-1.088 1.111.488 1.111 1.088 1.111 1.088-.498 1.088-1.111zM12 12.896c-.794 0-1.438.654-1.438 1.461s.644 1.461 1.438 1.461 1.438-.654 1.438-1.461-.644-1.461-1.438-1.461zm5.464 1.461c0 .807-.644 1.461-1.438 1.461s-1.438-.654-1.438-1.461.644-1.461 1.438-1.461 1.438.655 1.438 1.461zm-.35 0c0-.613-.488-1.111-1.088-1.111s-1.088.498-1.088 1.111.488 1.111 1.088 1.111 1.088-.498 1.088-1.111zm2.939-1.461c-.794 0-1.438.654-1.438 1.461s.644 1.461 1.438 1.461 1.438-.654 1.438-1.461-.644-1.461-1.438-1.461zM3.947 16.948c-.794 0-1.438.654-1.438 1.461s.644 1.461 1.438 1.461 1.438-.654 1.438-1.461-.644-1.461-1.438-1.461zm5.465 1.5c0 .807-.644 1.461-1.438 1.461s-1.438-.654-1.438-1.461.644-1.461 1.438-1.461 1.438.654 1.438 1.461zm-.35 0c0-.613-.488-1.111-1.088-1.111s-1.088.498-1.088 1.111.488 1.111 1.088 1.111 1.088-.498 1.088-1.111zm4.376 0c0 .807-.644 1.461-1.438 1.461s-1.438-.654-1.438-1.461.644-1.461 1.438-1.461 1.438.654 1.438 1.461zm-.35 0c0-.613-.488-1.111-1.088-1.111s-1.088.498-1.088 1.111.488 1.111 1.088 1.111 1.088-.498 1.088-1.111zm.35 4.091c0 .807-.644 1.461-1.438 1.461s-1.438-.654-1.438-1.461.644-1.461 1.438-1.461 1.438.654 1.438 1.461zm-.35 0c0-.613-.488-1.111-1.088-1.111s-1.088.498-1.088 1.111S11.4 23.65 12 23.65s1.088-.498 1.088-1.111zm4.376-4.091c0 .807-.644 1.461-1.438 1.461s-1.438-.654-1.438-1.461.644-1.461 1.438-1.461 1.438.654 1.438 1.461zm-.35 0c0-.613-.488-1.111-1.088-1.111s-1.088.498-1.088 1.111.488 1.111 1.088 1.111 1.088-.498 1.088-1.111zm2.939-1.461c-.794 0-1.438.654-1.438 1.461s.644 1.461 1.438 1.461 1.438-.654 1.438-1.461-.644-1.461-1.438-1.461z"/></g>
<text x="862" y="573" fill="#E3EAF2" font-size="14.5" font-weight="600">Metabase</text>
<text x="862" y="592" fill="#7E8C9A" font-size="11">threat intel · bi</text>
<text x="992" y="552" fill="#5C9FE0" font-size="11" text-anchor="end" font-weight="600">:3008</text>
<rect x="1032" y="528" width="216" height="96" rx="10" fill="#0E141B" stroke="#39465A" stroke-width="1.2"/>
<rect x="1048" y="556.0" width="40" height="40" rx="9" fill="#5B9BCB" fill-opacity="0.14" stroke="#5B9BCB" stroke-opacity="0.45" stroke-width="1"/>
<g transform="translate(1057.0,565.0) scale(0.9167)" fill="#5B9BCB"><path d="M8.571 1.286A1.72 1.72 0 0 0 6.857 3v10.286c0 .634.353 1.183.868 1.48.251.144.538.234.846.234h13.715A1.72 1.72 0 0 0 24 13.286V3a1.72 1.72 0 0 0-1.714-1.714Zm.56 12.087zm3.166 0zm-10.583-.087A1.72 1.72 0 0 0 0 15v6a1.72 1.72 0 0 0 1.714 1.714h8.572a1.715 1.715 0 0 0 1.473-.857c.148-.253.241-.544.241-.857v-4.286H8.571c-.296 0-.582-.042-.857-.114a3.439 3.439 0 0 1-2.571-3.314Zm18 3.428h-6V21H18a1.72 1.72 0 0 0 1.714-1.714z"/></g>
<text x="1102" y="573" fill="#E3EAF2" font-size="14.5" font-weight="600">Duplicati</text>
<text x="1102" y="592" fill="#7E8C9A" font-size="11">backup 3-2-1</text>
<text x="1232" y="552" fill="#5B9BCB" font-size="11" text-anchor="end" font-weight="600">:8200</text>
<rect x="72" y="728" width="216" height="96" rx="10" fill="#0E141B" stroke="#39465A" stroke-width="1.2"/>
<rect x="88" y="756.0" width="40" height="40" rx="9" fill="#E07B54" fill-opacity="0.14" stroke="#E07B54" stroke-opacity="0.45" stroke-width="1"/>
<g transform="translate(97.0,765.0) scale(0.9167)" fill="#E07B54"><path d="M12 0C5.373 0 0 5.372 0 12c0 6.627 5.373 12 12 12s12-5.373 12-12c0-6.628-5.373-12-12-12zm0 22.46c-1.885 0-3.414-1.26-3.414-2.814h6.828c0 1.553-1.528 2.813-3.414 2.813zm5.64-3.745H6.36v-2.046h11.28v2.046zm-.04-3.098H6.391c-.037-.043-.075-.086-.111-.13-1.155-1.401-1.427-2.133-1.69-2.879-.005-.025 1.4.287 2.395.511 0 0 .513.119 1.262.255-.72-.843-1.147-1.915-1.147-3.01 0-2.406 1.845-4.508 1.18-6.207.648.053 1.34 1.367 1.387 3.422.689-.951.977-2.69.977-3.755 0-1.103.727-2.385 1.454-2.429-.648 1.069.168 1.984.894 4.256.272.854.237 2.29.447 3.201.07-1.892.395-4.652 1.595-5.605-.529 1.2.079 2.702.494 3.424.671 1.164 1.078 2.047 1.078 3.716a4.642 4.642 0 01-1.11 2.996c.792-.149 1.34-.283 1.34-.283l2.573-.502s-.374 1.538-1.81 3.019z"/></g>
<text x="142" y="773" fill="#E3EAF2" font-size="14.5" font-weight="600">Prometheus</text>
<text x="142" y="792" fill="#7E8C9A" font-size="11">time-series</text>
<rect x="312" y="728" width="216" height="96" rx="10" fill="#0E141B" stroke="#39465A" stroke-width="1.2"/>
<rect x="328" y="756.0" width="40" height="40" rx="9" fill="#F0934B" fill-opacity="0.14" stroke="#F0934B" stroke-opacity="0.45" stroke-width="1"/>
<g transform="translate(337.0,765.0) scale(0.9167)" fill="#F0934B"><path d="M23.02 10.59a8.578 8.578 0 0 0-.862-3.034 8.911 8.911 0 0 0-1.789-2.445c.337-1.342-.413-2.505-.413-2.505-1.292-.08-2.113.4-2.416.62-.052-.02-.102-.044-.154-.064-.22-.089-.446-.172-.677-.247-.231-.073-.47-.14-.711-.197a9.867 9.867 0 0 0-.875-.161C14.557.753 12.94 0 12.94 0c-1.804 1.145-2.147 2.744-2.147 2.744l-.018.093c-.098.029-.2.057-.298.088-.138.042-.275.094-.413.143-.138.055-.275.107-.41.166a8.869 8.869 0 0 0-1.557.87l-.063-.029c-2.497-.955-4.716.195-4.716.195-.203 2.658.996 4.33 1.235 4.636a11.608 11.608 0 0 0-.607 2.635C1.636 12.677.953 15.014.953 15.014c1.926 2.214 4.171 2.351 4.171 2.351.003-.002.006-.002.006-.005.285.509.615.994.986 1.446.156.19.32.371.488.548-.704 2.009.099 3.68.099 3.68 2.144.08 3.553-.937 3.849-1.173a9.784 9.784 0 0 0 3.164.501h.08l.055-.003.107-.002.103-.005.003.002c1.01 1.44 2.788 1.646 2.788 1.646 1.264-1.332 1.337-2.653 1.337-2.94v-.058c0-.02-.003-.039-.003-.06.265-.187.52-.387.758-.6a7.875 7.875 0 0 0 1.415-1.7c1.43.083 2.437-.885 2.437-.885-.236-1.49-1.085-2.216-1.264-2.354l-.018-.013-.016-.013a.217.217 0 0 1-.031-.02c.008-.092.016-.18.02-.27.011-.162.016-.323.016-.48v-.253l-.005-.098-.008-.135a1.891 1.891 0 0 0-.01-.13c-.003-.042-.008-.083-.013-.125l-.016-.124-.018-.122a6.215 6.215 0 0 0-2.032-3.73 6.015 6.015 0 0 0-3.222-1.46 6.292 6.292 0 0 0-.85-.048l-.107.002h-.063l-.044.003-.104.008a4.777 4.777 0 0 0-3.335 1.695c-.332.4-.592.84-.768 1.297a4.594 4.594 0 0 0-.312 1.817l.003.091c.005.055.007.11.013.164a3.615 3.615 0 0 0 .698 1.82 3.53 3.53 0 0 0 1.827 1.282c.33.098.66.14.971.137.039 0 .078 0 .114-.002l.063-.003c.02 0 .041-.003.062-.003.034-.002.065-.007.099-.01.007 0 .018-.003.028-.003l.031-.005.06-.008a1.18 1.18 0 0 0 .112-.02c.036-.008.072-.013.109-.024a2.634 2.634 0 0 0 .914-.415c.028-.02.056-.041.085-.065a.248.248 0 0 0 .039-.35.244.244 0 0 0-.309-.06l-.078.042c-.09.044-.184.083-.283.116a2.476 2.476 0 0 1-.475.096c-.028.003-.054.006-.083.006l-.083.002c-.026 0-.054 0-.08-.002l-.102-.006h-.012l-.024.006c-.016-.003-.031-.003-.044-.006-.031-.002-.06-.007-.091-.01a2.59 2.59 0 0 1-.724-.213 2.557 2.557 0 0 1-.667-.438 2.52 2.52 0 0 1-.805-1.475 2.306 2.306 0 0 1-.029-.444l.006-.122v-.023l.002-.031c.003-.021.003-.04.005-.06a3.163 3.163 0 0 1 1.352-2.29 3.12 3.12 0 0 1 .937-.43 2.946 2.946 0 0 1 .776-.101h.06l.07.002.045.003h.026l.07.005a4.041 4.041 0 0 1 1.635.49 3.94 3.94 0 0 1 1.602 1.662 3.77 3.77 0 0 1 .397 1.414l.005.076.003.075c.002.026.002.05.002.075 0 .024.003.052 0 .07v.065l-.002.073-.008.174a6.195 6.195 0 0 1-.08.639 5.1 5.1 0 0 1-.267.927 5.31 5.31 0 0 1-.624 1.13 5.052 5.052 0 0 1-3.237 2.014 4.82 4.82 0 0 1-.649.066l-.039.003h-.287a6.607 6.607 0 0 1-1.716-.265 6.776 6.776 0 0 1-3.4-2.274 6.75 6.75 0 0 1-.746-1.15 6.616 6.616 0 0 1-.714-2.596l-.005-.083-.002-.02v-.056l-.003-.073v-.096l-.003-.104v-.07l.003-.163c.008-.22.026-.45.054-.678a8.707 8.707 0 0 1 .28-1.355c.128-.444.286-.872.473-1.277a7.04 7.04 0 0 1 1.456-2.1 5.925 5.925 0 0 1 .953-.763c.169-.111.343-.213.524-.306.089-.05.182-.091.273-.135.047-.02.093-.042.138-.062a7.177 7.177 0 0 1 .714-.267l.145-.045c.049-.015.098-.026.148-.041.098-.029.197-.052.296-.076.049-.013.1-.02.15-.033l.15-.032.151-.028.076-.013.075-.01.153-.024c.057-.01.114-.013.171-.023l.169-.021c.036-.003.073-.008.106-.01l.073-.008.036-.003.042-.002c.057-.003.114-.008.171-.01l.086-.006h.023l.037-.003.145-.007a7.999 7.999 0 0 1 1.708.125 7.917 7.917 0 0 1 2.048.68 8.253 8.253 0 0 1 1.672 1.09l.09.077.089.078c.06.052.114.107.171.159.057.052.112.106.166.16.052.055.107.107.159.164a8.671 8.671 0 0 1 1.41 1.978c.012.026.028.052.04.078l.04.078.075.156c.023.051.05.1.07.153l.065.15a8.848 8.848 0 0 1 .45 1.34.19.19 0 0 0 .201.142.186.186 0 0 0 .172-.184c.01-.246.002-.532-.024-.856z"/></g>
<text x="382" y="773" fill="#E3EAF2" font-size="14.5" font-weight="600">Grafana</text>
<text x="382" y="792" fill="#7E8C9A" font-size="11">dashboards</text>
<text x="512" y="752" fill="#F0934B" font-size="11" text-anchor="end" font-weight="600">:3000</text>
<rect x="552" y="728" width="216" height="96" rx="10" fill="#0E141B" stroke="#39465A" stroke-width="1.2"/>
<rect x="568" y="756.0" width="40" height="40" rx="9" fill="#56B6C2" fill-opacity="0.14" stroke="#56B6C2" stroke-opacity="0.45" stroke-width="1"/>
<g transform="translate(577.0,765.0) scale(0.9167)" fill="none" stroke="#56B6C2" stroke-width="2" stroke-linecap="round" stroke-linejoin="round"><!-- @license lucide-static v1.21.0 - ISC -->

  <path d="M12 20v2" />
  <path d="M12 2v2" />
  <path d="M17 20v2" />
  <path d="M17 2v2" />
  <path d="M2 12h2" />
  <path d="M2 17h2" />
  <path d="M2 7h2" />
  <path d="M20 12h2" />
  <path d="M20 17h2" />
  <path d="M20 7h2" />
  <path d="M7 20v2" />
  <path d="M7 2v2" />
  <rect x="4" y="4" width="16" height="16" rx="2" />
  <rect x="8" y="8" width="8" height="8" rx="1" /></g>
<text x="622" y="773" fill="#E3EAF2" font-size="14.5" font-weight="600">Node Exporter</text>
<text x="622" y="792" fill="#7E8C9A" font-size="11">métriques hôte</text>
<rect x="792" y="728" width="216" height="96" rx="10" fill="#0E141B" stroke="#39465A" stroke-width="1.2"/>
<rect x="808" y="756.0" width="40" height="40" rx="9" fill="#56B6C2" fill-opacity="0.14" stroke="#56B6C2" stroke-opacity="0.45" stroke-width="1"/>
<g transform="translate(817.0,765.0) scale(0.9167)" fill="none" stroke="#56B6C2" stroke-width="2" stroke-linecap="round" stroke-linejoin="round"><!-- @license lucide-static v1.21.0 - ISC -->

  <path d="M22 7.7c0-.6-.4-1.2-.8-1.5l-6.3-3.9a1.72 1.72 0 0 0-1.7 0l-10.3 6c-.5.2-.9.8-.9 1.4v6.6c0 .5.4 1.2.8 1.5l6.3 3.9a1.72 1.72 0 0 0 1.7 0l10.3-6c.5-.3.9-1 .9-1.5Z" />
  <path d="M10 21.9V14L2.1 9.1" />
  <path d="m10 14 11.9-6.9" />
  <path d="M14 19.8v-8.1" />
  <path d="M18 17.5V9.4" /></g>
<text x="862" y="773" fill="#E3EAF2" font-size="14.5" font-weight="600">cAdvisor</text>
<text x="862" y="792" fill="#7E8C9A" font-size="11">métriques conteneurs</text>
<rect x="1032" y="728" width="216" height="96" rx="10" fill="#0E141B" stroke="#39465A" stroke-width="1.2"/>
<rect x="1048" y="756.0" width="40" height="40" rx="9" fill="#5FD08A" fill-opacity="0.14" stroke="#5FD08A" stroke-opacity="0.45" stroke-width="1"/>
<g transform="translate(1057.0,765.0) scale(0.9167)" fill="#5FD08A"><path d="M11.759.955c-4.071 0-7.93 2.265-10.06 5.774l-.16.263-.116.284c-1.81 4.44-2.188 9.118.621 12.459 2.67 3.174 6.221 3.328 9.477 3.308 3.256-.02 6.323-.482 8.995-2.032C22.75 19.714 24 16.917 24 14.53c0-2.388-.724-4.698-1.882-7.343l-.112-.257-.148-.238C19.683 3.2 15.83.955 11.758.955Zm0 3.868c2.919 0 5.19 1.305 6.816 3.914 2.076 4.747 2.076 7.724 0 8.929-3.116 1.808-11.234 2.359-13.57-.42-1.558-1.853-1.558-4.69 0-8.51 1.584-2.608 3.835-3.913 6.754-3.913z"/></g>
<text x="1102" y="773" fill="#E3EAF2" font-size="14.5" font-weight="600">Uptime Kuma</text>
<text x="1102" y="792" fill="#7E8C9A" font-size="11">sondes externes</text>
<text x="1232" y="752" fill="#5FD08A" font-size="11" text-anchor="end" font-weight="600">:3001</text>
<path d="M 130.0 160.0 L 130.0 202.0 Q 130.0 216.0 144.0 216.0 L 272.0 216.0 Q 286.0 216.0 286.0 230.0 L 286.0 260.0" fill="none" stroke="#94A1AE" stroke-width="2.4"  opacity="1" stroke-linecap="round" marker-end="url(#m94A1AE)"/>
<rect x="210.0" y="207.0" width="44.0" height="18" rx="4" fill="#0E141B"/>
<text x="232.0" y="219.5" fill="#94A1AE" font-size="10" text-anchor="middle" letter-spacing="0.3">https</text>
<path d="M 286.0 306.0 L 286.0 364.0" fill="none" stroke="#94A1AE" stroke-width="2.4"  opacity="1" stroke-linecap="round" marker-end="url(#m94A1AE)"/>
<path d="M 250.0 160.0 L 250.0 224.0 Q 250.0 238.0 264.0 238.0 L 646.0 238.0 Q 660.0 238.0 660.0 252.0 L 660.0 528.0" fill="none" stroke="#E8B84B" stroke-width="2.4" stroke-dasharray="2 5" opacity="1" stroke-linecap="round" marker-end="url(#mE8B84B)"/>
<rect x="404.2" y="229.0" width="101.6" height="18" rx="4" fill="#0E141B"/>
<text x="455.0" y="241.5" fill="#E8B84B" font-size="10" text-anchor="middle" letter-spacing="0.3">ssh-lure :2222</text>
<path d="M 286.0 420.0 L 286.0 434.0 Q 286.0 448.0 300.0 448.0 L 406.0 448.0 Q 420.0 448.0 420.0 462.0 L 420.0 528.0" fill="none" stroke="#3FB6C9" stroke-width="1.5"  opacity="0.85" stroke-linecap="round" marker-end="url(#m3FB6C9)"/>
<rect x="334.2" y="439.0" width="37.6" height="18" rx="4" fill="#0E141B"/>
<text x="353.0" y="451.5" fill="#3FB6C9" font-size="10" text-anchor="middle" letter-spacing="0.3">logs</text>
<path d="M 552.0 576.0 L 528.0 576.0" fill="none" stroke="#3FB6C9" stroke-width="1.5"  opacity="0.85" stroke-linecap="round" marker-end="url(#m3FB6C9)"/>
<path d="M 400.0 528.0 L 400.0 480.0 Q 400.0 466.0 414.0 466.0 L 494.0 466.0 Q 508.0 466.0 508.0 452.0 L 508.0 306.0" fill="none" stroke="#E8B84B" stroke-width="2.4"  opacity="1" stroke-linecap="round" marker-end="url(#mE8B84B)"/>
<rect x="524.4" y="391.0" width="31.2" height="18" rx="4" fill="#0E141B"/>
<text x="540.0" y="403.5" fill="#E8B84B" font-size="10" text-anchor="middle" letter-spacing="0.3">ban</text>
<path d="M 456.0 528.0 L 456.0 496.0 Q 456.0 482.0 470.0 482.0 L 596.0 482.0 Q 610.0 482.0 610.0 468.0 L 610.0 192.0 Q 610.0 178.0 624.0 178.0 L 771.0 178.0 Q 780.0 178.0 780.0 169.0 L 780.0 160.0" fill="none" stroke="#E8B84B" stroke-width="1.5" stroke-dasharray="2 5" opacity="0.85" stroke-linecap="round" marker-end="url(#mE8B84B)"/>
<rect x="678.0" y="169.0" width="44.0" height="18" rx="4" fill="#0E141B"/>
<text x="700.0" y="181.5" fill="#E8B84B" font-size="10" text-anchor="middle" letter-spacing="0.3">alert</text>
<path d="M 412.0 624.0 L 412.0 646.0 Q 412.0 660.0 426.0 660.0 L 886.0 660.0 Q 900.0 660.0 900.0 646.0 L 900.0 624.0" fill="none" stroke="#3FB6C9" stroke-width="1.5" stroke-dasharray="2 5" opacity="0.85" stroke-linecap="round" marker-end="url(#m3FB6C9)"/>
<rect x="618.8" y="651.0" width="82.4" height="18" rx="4" fill="#0E141B"/>
<text x="660.0" y="663.5" fill="#3FB6C9" font-size="10" text-anchor="middle" letter-spacing="0.3">sqlite (ro)</text>
<path d="M 660.0 728.0 L 660.0 716.0 Q 660.0 704.0 648.0 704.0 L 180.0 704.0 Q 168.0 704.0 168.0 716.0 L 168.0 728.0" fill="none" stroke="#3FB6C9" stroke-width="1.5"  opacity="0.85" stroke-linecap="round" marker-end="url(#m3FB6C9)"/>
<rect x="401.6" y="695.0" width="56.8" height="18" rx="4" fill="#0E141B"/>
<text x="430.0" y="707.5" fill="#3FB6C9" font-size="10" text-anchor="middle" letter-spacing="0.3">metrics</text>
<path d="M 900.0 728.0 L 900.0 725.0 Q 900.0 722.0 897.0 722.0 L 195.0 722.0 Q 192.0 722.0 192.0 725.0 L 192.0 728.0" fill="none" stroke="#3FB6C9" stroke-width="1.5"  opacity="0.85" stroke-linecap="round" marker-end="url(#m3FB6C9)"/>
<path d="M 288.0 776.0 L 312.0 776.0" fill="none" stroke="#3FB6C9" stroke-width="1.5"  opacity="0.85" stroke-linecap="round" marker-end="url(#m3FB6C9)"/>
<rect x="278.0" y="754.0" width="44.0" height="18" rx="4" fill="#0E141B"/>
<text x="300.0" y="766.5" fill="#3FB6C9" font-size="10" text-anchor="middle" letter-spacing="0.3">query</text>
<path d="M 1140.0 528.0 L 1140.0 190.5 Q 1140.0 182.0 1131.5 182.0 L 1131.5 182.0 Q 1123.0 182.0 1123.0 173.5 L 1123.0 160.0" fill="none" stroke="#3FB6C9" stroke-width="1.5" stroke-dasharray="2 5" opacity="0.85" stroke-linecap="round" marker-end="url(#m3FB6C9)"/>
<rect x="1111.6" y="351.0" width="56.8" height="18" rx="4" fill="#0E141B"/>
<text x="1140.0" y="363.5" fill="#3FB6C9" font-size="10" text-anchor="middle" letter-spacing="0.3">aes-256</text>
<path d="M 1140.0 728.0 L 1140.0 718.0 Q 1140.0 708.0 1130.0 708.0 L 1034.0 708.0 Q 1020.0 708.0 1020.0 694.0 L 1020.0 192.0 Q 1020.0 178.0 1006.0 178.0 L 909.0 178.0 Q 900.0 178.0 900.0 169.0 L 900.0 160.0" fill="none" stroke="#E8B84B" stroke-width="1.5" stroke-dasharray="2 5" opacity="0.85" stroke-linecap="round" marker-end="url(#mE8B84B)"/>
<rect x="998.0" y="351.0" width="44.0" height="18" rx="4" fill="#0E141B"/>
<text x="1020.0" y="363.5" fill="#E8B84B" font-size="10" text-anchor="middle" letter-spacing="0.3">alert</text>
<rect x="48" y="905" width="548" height="32" rx="6" fill="#0E141B" stroke="#39465A" stroke-width="1"/>
<text x="66" y="925" fill="#7E8C9A" font-size="10.5" font-weight="700">FLUX</text>
<line x1="120" y1="924" x2="144" y2="924" stroke="#94A1AE" stroke-width="2.4" />
<text x="152" y="928" fill="#7E8C9A" font-size="10.5">trafic</text>
<line x1="216" y1="924" x2="240" y2="924" stroke="#E8B84B" stroke-width="2.4" stroke-dasharray="2 4"/>
<text x="248" y="928" fill="#7E8C9A" font-size="10.5">sécurité</text>
<line x1="326" y1="924" x2="350" y2="924" stroke="#3FB6C9" stroke-width="2.4" stroke-dasharray="2 4"/>
<text x="358" y="928" fill="#7E8C9A" font-size="10.5">données</text>
<text x="606" y="928" fill="#647A93" font-size="9.5">icons · simple-icons (CC0) · lucide (ISC)</text>
</svg>